<?xml version="1.0" standalone="no"?><!DOCTYPE svg PUBLIC "-//W3C//DTD SVG 1.1//EN" "http://www.w3.org/Graphics/SVG/1.1/DTD/svg11.dtd"><svg t="1603118575180" class="icon" viewBox="0 0 1024 1024" version="1.1" xmlns="http://www.w3.org/2000/svg" p-id="6743" xmlns:xlink="http://www.w3.org/1999/xlink" width="200" height="200"><defs><style type="text/css"></style></defs><path d="M461.049081 20.756757a261.396757 261.396757 0 1 1 0 522.793513 261.396757 261.396757 0 0 1 0-522.793513z m0 69.189189a192.207568 192.207568 0 1 0 0 384.415135 192.207568 192.207568 0 0 0 0-384.415135z" fill="#303030" p-id="6744"></path><path d="M465.560216 474.361081h-155.731027l-7.472432 0.110703A261.424432 261.424432 0 0 0 48.432432 735.757838v33.072432l0.110703 7.001946A228.324324 228.324324 0 0 0 276.756757 997.154595h250.741621l3.65319-0.19373a34.594595 34.594595 0 0 0-3.625514-68.99546H276.756757l-6.088649-0.110702a159.135135 159.135135 0 0 1-153.046486-159.024433v-33.072432l0.110702-6.586811a192.179892 192.179892 0 0 1 192.096865-185.620757h155.731027l3.625514-0.193729a34.594595 34.594595 0 0 0-3.625514-68.99546z" fill="#303030" p-id="6745"></path><path d="M748.516324 536.686703l-1.245405 0.996324 2.933622 2.490811c-22.140541-19.788108-50.36973-25.627676-79.23546-15.609081l-9.603459 4.262054c-21.780757 10.04627-39.714595 20.950486-55.212973 33.321513l-6.227027 5.147676-2.048 1.632865a77.602595 77.602595 0 0 0-25.766054 73.368216l0.193729 1.024-2.075675 0.83027a62.768432 62.768432 0 0 0-9.132973 5.12l-2.490811 1.771244 2.463135-1.549838c-14.889514 8.607135-26.457946 22.860108-33.764324 40.268108l-2.43546 7.001946-1.356108 5.535135-0.581189 3.763892-0.249081 2.739892-0.774919 4.511135c-1.771243 11.291676-2.573838 22.72173-2.573838 34.705297 0 16.937514 1.466811 32.380541 4.677189 46.135352l0.38746 2.352432a76.384865 76.384865 0 0 0 48.155675 55.462054l-0.553513 2.739892c-3.929946 23.081514 4.040649 48.875243 21.946811 66.919784l10.24 9.575783a198.794378 198.794378 0 0 0 44.115027 29.391568l1.937297 0.913297-0.553514 4.262054 33.044757 8.025946c4.206703 0.83027 7.638486 1.273081 10.904216 1.466811l5.645838 0.083027 5.673514-0.249081 6.088648-0.802595a80.812973 80.812973 0 0 0 32.574271-13.035243l5.092324-3.819243-2.24173-1.85427c15.221622 13.395027 32.795676 20.563027 51.2 20.563027 7.223351 0 12.509405-0.498162 18.902487-2.048 3.210378-0.802595 6.365405-1.798919 9.40973-3.072l12.315675-5.618162 9.132973-4.566487a259.597838 259.597838 0 0 0 40.793946-26.125838l6.310054-5.175351 1.826595-1.300757c20.590703-16.107243 30.830703-43.174054 27.620324-69.521297l-0.968649-5.867243 3.902271-1.743568c2.767568-1.383784 5.424432-2.933622 7.970594-4.704865l1.992649-1.494486-2.546162 1.66054c14.861838-8.607135 26.402595-22.832432 33.681297-40.240432l2.463135-7.001946 1.356108-5.535135 0.58119-3.763892 0.221405-2.767568 0.608865-3.376432c1.937297-11.762162 2.767568-23.856432 2.739892-37.196108l-1.383784-18.459676-0.913297-8.38573a199.707676 199.707676 0 0 0-3.016649-17.933838l-0.83027-4.843243c-5.230703-23.911784-23.219892-44.613189-47.878919-53.829189l0.553513-2.656865c3.957622-23.136865-4.012973-48.902919-21.919135-66.975135l-3.985297-3.736216a204.163459 204.163459 0 0 0-73.53427-45.222054l-2.380109-0.940973-1.577513-0.553514c-24.243892-8.081297-50.286703-2.518486-70.600649 13.533406z m-45.249729 54.299675l1.632864 1.577514c22.500324 23.081514 57.925189 27.260541 80.812973 4.483459l5.369082-6.033297 1.577513-1.245405a7.583135 7.583135 0 0 1 3.293405-1.107027l1.21773 0.138378 1.85427 0.719568c19.511351 6.918919 36.67027 17.574054 50.701838 31.190486 3.929946 3.514811 4.898595 7.527784 3.929946 9.824865a57.980541 57.980541 0 0 0 4.898595 48.570811c6.808216 11.900541 15.498378 20.646054 27.481946 25.655351l4.123675 1.494487 5.673514 1.439135 2.933622 0.498162c1.245405 0.332108 3.376432 2.684541 3.874594 6.088649l1.41146 7.472432c0.387459 2.186378 0.664216 4.151351 0.940973 6.282378l0.747243 6.752865 1.162378 14.72346c-0.083027 7.112649-0.664216 15.498378-1.826594 22.611027l-1.41146 7.666162-0.027676 1.134703-0.332108 1.051675-0.83027 1.439135a12.09427 12.09427 0 0 1-2.767567 3.210379l-2.601514 1.771243-1.660541 0.553513c-14.917189 4.621838-28.063135 14.252973-35.341837 27.343568a64.124541 64.124541 0 0 0-5.950271 46.356757l0.802595 2.767567c1.107027 3.404108-0.19373 7.638486-1.162378 8.302703l-3.127352 2.352433c-12.038919 10.24-25.821405 19.096216-41.624216 26.651675l-9.243676 4.179027-2.103351 0.055352c-0.940973 0-2.518486-0.664216-4.566486-2.43546l-1.937298-1.909622c-24.603676-25.184865-62.851459-26.347243-85.711567 1.190055a11.706811 11.706811 0 0 1-5.562811 2.297081l-2.380108 0.083027-1.024-0.359784A136.773189 136.773189 0 0 1 644.843243 874.551351c-3.321081-2.933622-4.538811-6.199351-4.289729-8.524108l0.304432-1.273081a58.063568 58.063568 0 0 0-4.870919-48.598486c-6.891243-11.983568-15.526054-20.701405-27.509622-25.683027l-4.123675-1.494487-5.645838-1.439135-2.933622-0.470486c-1.245405-0.359784-3.404108-2.656865-3.874594-5.867244l-0.553514-2.822919a137.40973 137.40973 0 0 1-2.822919-30.360216c0-8.579459 0.553514-16.439351 1.605189-23.247567l0.996325-5.479784 0.304432-3.487135 0.608865-1.688217 0.83027-1.439135a12.315676 12.315676 0 0 1 2.850595-3.293405l2.822919-1.937297 1.356108-0.276757c14.834162-4.621838 28.007784-14.252973 35.286486-27.260541a64.345946 64.345946 0 0 0 6.005622-46.495135l-0.83027-2.822919c-1.107027-3.348757 0.166054-7.36173 2.297081-8.911567l2.269405-1.826595c13.450378-11.623784 30.221838-21.808432 51.116973-30.858378 2.573838-0.802595 4.566486-0.387459 7.223352 1.992648z" fill="#303030" p-id="6746"></path><path d="M747.243243 664.216216c45.830919 0 83.027027 37.334486 83.027027 83.027027 0 45.720216-37.168432 83.027027-83.027027 83.027027-46.550486 0-83.027027-36.614919-83.027027-83.027027a82.196757 82.196757 0 0 1 78.405189-82.916324L747.243243 664.216216z" fill="#037AFF" p-id="6747"></path></svg>