<?xml version="1.0" standalone="no"?><!DOCTYPE svg PUBLIC "-//W3C//DTD SVG 1.1//EN" "http://www.w3.org/Graphics/SVG/1.1/DTD/svg11.dtd"><svg t="1603118591845" class="icon" viewBox="0 0 1024 1024" version="1.1" xmlns="http://www.w3.org/2000/svg" p-id="6997" xmlns:xlink="http://www.w3.org/1999/xlink" width="200" height="200"><defs><style type="text/css"></style></defs><path d="M334.576941 245.338353a32.256 32.256 0 0 0 0 45.598118l157.364706 157.364705a32.256 32.256 0 1 0 45.628235-45.628235l-157.364706-157.334588a32.256 32.256 0 0 0-45.628235 0z" fill="#037AFF" p-id="6998"></path><path d="M694.904471 245.338353a32.256 32.256 0 0 1 0 45.598118l-157.334589 157.364705a32.256 32.256 0 1 1-45.628235-45.628235l157.364706-157.334588a32.256 32.256 0 0 1 45.598118 0z" fill="#037AFF" p-id="6999"></path><path d="M708.065882 425.833412H337.167059a32.256 32.256 0 0 0 0 64.512h370.898823a32.256 32.256 0 0 0 0-64.512zM708.065882 524.739765H337.167059a32.256 32.256 0 0 0 0 64.512h370.898823a32.256 32.256 0 0 0 0-64.512z" fill="#037AFF" p-id="7000"></path><path d="M479.623529 470.437647V788.48a32.256 32.256 0 0 0 64.512 0V470.437647a32.256 32.256 0 1 0-64.512 0z" fill="#037AFF" p-id="7001"></path><path d="M523.264 22.588235c233.622588 0 433.332706 164.894118 479.503059 391.017412a37.647059 37.647059 0 1 1-73.788235 15.058824C889.976471 237.417412 720.956235 97.882353 523.294118 97.882353c-193.174588 0-357.737412 132.999529-402.281412 315.331765l-0.993882 4.186353h66.228705c19.486118 0 35.538824 14.817882 37.436236 33.792l0.210823 3.855058a37.647059 37.647059 0 0 1-33.822117 37.466353l-3.824942 0.180706H32.376471l5.330823-42.345412C68.306824 207.058824 275.937882 22.588235 523.264 22.588235zM518.324706 1005.387294c-247.627294 0-455.378824-184.862118-485.647059-428.513882a37.647059 37.647059 0 1 1 74.691765-9.276236c25.6 206.034824 201.456941 362.496 410.955294 362.496 193.174588 0 357.737412-133.029647 402.281412-315.331764l0.993882-4.216471h-82.582588a37.647059 37.647059 0 0 1-37.466353-33.761882l-0.180706-3.855059c0-19.516235 14.817882-35.538824 33.792-37.466353l3.855059-0.180706h170.164706l-5.300706 42.345412c-30.599529 243.290353-238.230588 427.760941-485.556706 427.760941z" fill="#303030" p-id="7002"></path></svg>