<?xml version="1.0" standalone="no"?><!DOCTYPE svg PUBLIC "-//W3C//DTD SVG 1.1//EN" "http://www.w3.org/Graphics/SVG/1.1/DTD/svg11.dtd"><svg t="1603118584147" class="icon" viewBox="0 0 1024 1024" version="1.1" xmlns="http://www.w3.org/2000/svg" p-id="6871" xmlns:xlink="http://www.w3.org/1999/xlink" width="200" height="200"><defs><style type="text/css"></style></defs><path d="M252.873149 369.998917L59.544498 176.670267l-20.976947 53.560427A338.853647 338.853647 0 0 0 114.446597 593.611038l6.559289 6.388918a338.974118 338.974118 0 0 0 351.390476 71.598472l6.474103-2.512975 252.511326 277.726254 4.36576 4.621318c60.204902 60.204902 156.762745 60.204902 216.328755 0.638891l4.387057-4.60002 4.301871-4.898171c52.708571-63.016025 46.766878-155.974778-13.949137-211.196324l-277.726254-252.511325 2.534271-6.4954a338.944 338.944 0 0 0-441.367734-433.828811l-53.560427 20.976947 193.307354 193.349947 3.513905 3.726869c28.899205 31.8807 27.727903 82.161482-3.513905 113.403289a82.823529 82.823529 0 0 1-117.130158 0zM92.213164 323.785746l0.894448-7.070403 106.524555 106.524556a158.117647 158.117647 0 0 0 229.042701-217.925985l-4.770392-5.025948L316.74103 93.124519l7.070402-0.937041a263.649882 263.649882 0 0 1 266.141017 379.437824l-12.713947 25.491782 318.934774 289.97168a77.221647 77.221647 0 0 1 5.19632 109.080122l-3.173163 3.300941c-29.5168 29.5168-78.413317 29.5168-108.569009-0.638892l-3.151866-3.322237-289.311491-318.274585-25.491782 12.713946A263.649882 263.649882 0 0 1 92.191867 323.764449z" fill="#303030" p-id="6872"></path><path d="M840.270246 840.265856m-42.592785 42.592785a60.235294 60.235294 0 1 0 85.18557-85.18557 60.235294 60.235294 0 1 0-85.18557 85.18557Z" fill="#037AFF" p-id="6873"></path></svg>